ply
format ascii 1.0
comment Created by Blender 2.59 (sub 0) - www.blender.org, source file: 'ship1.blend'
element vertex 368
property float x
property float y
property float z
property float nx
property float ny
property float nz
element face 120
property list uchar uint vertex_indices
end_header
6.973096 0.563528 -0.618132 0.034810 -0.000000 -0.999394 
-3.990260 -1.000000 -1.000000 0.034810 -0.000000 -0.999394 
-3.990259 2.725982 -1.000000 0.034810 -0.000000 -0.999394 
6.524265 -0.124212 0.005629 0.083006 -0.996549 0.000000 
-3.990260 -1.000000 1.848076 0.083006 -0.996549 0.000000 
-3.990260 -1.000000 -1.000000 0.083006 -0.996549 0.000000 
6.529557 0.168817 -0.618132 0.115237 -0.899447 -0.421563 
6.524265 -0.124212 0.005629 0.115237 -0.899447 -0.421563 
-3.990260 -1.000000 -1.000000 0.115237 -0.899447 -0.421563 
6.529557 1.320605 0.005629 0.132417 0.991194 0.000000 
-3.990259 2.725982 -1.000000 0.132417 0.991194 0.000000 
-3.990260 2.725981 1.848076 0.132417 0.991194 0.000000 
6.529557 1.320605 0.005629 0.161763 0.838303 -0.520655 
6.529557 0.933198 -0.618132 0.161763 0.838303 -0.520655 
-3.990259 2.725982 -1.000000 0.161763 0.838303 -0.520655 
6.529557 -0.034936 0.226258 0.176515 -0.526295 0.831779 
6.529557 0.133072 0.332563 0.176515 -0.526295 0.831779 
-3.990260 -1.000000 1.848076 0.176515 -0.526295 0.831779 
6.529557 0.989443 0.332563 0.197436 0.425161 0.883322 
6.529558 1.248242 0.207997 0.197436 0.425161 0.883322 
-3.990260 2.725981 1.848076 0.197436 0.425161 0.883322 
6.529557 1.257479 0.200734 0.171541 0.434799 0.884038 
6.529558 1.248242 0.207997 0.171541 0.434799 0.884038 
6.529557 0.989443 0.332563 0.171541 0.434799 0.884038 
6.969603 0.996333 0.246507 0.171541 0.434799 0.884038 
6.529557 1.320605 0.005629 0.457140 0.839187 0.294599 
6.529557 1.257479 0.200734 0.457140 0.839187 0.294599 
6.969603 0.996333 0.246507 0.457140 0.839187 0.294599 
7.041075 1.084245 -0.099538 0.457140 0.839187 0.294599 
6.969603 0.996333 0.246507 0.192570 0.031324 0.980783 
6.529557 0.989443 0.332563 0.192570 0.031324 0.980783 
6.529557 0.575331 0.346353 0.192570 0.031324 0.980783 
7.041075 0.572380 0.245450 0.192570 0.031324 0.980783 
7.041075 1.084245 -0.099538 0.674699 0.412515 0.612057 
6.969603 0.996333 0.246507 0.674699 0.412515 0.612057 
7.041075 0.572380 0.245450 0.674699 0.412515 0.612057 
7.639934 0.569430 -0.204705 0.674699 0.412515 0.612057 
7.041075 0.572380 0.245450 0.172421 -0.005440 0.985008 
6.529557 0.575331 0.346353 0.172421 -0.005440 0.985008 
6.529557 0.133072 0.332563 0.172421 -0.005440 0.985008 
6.972108 0.167379 0.266634 0.172421 -0.005440 0.985008 
7.639934 0.569430 -0.204705 0.672128 -0.354092 0.650279 
7.041075 0.572380 0.245450 0.672128 -0.354092 0.650279 
6.972108 0.167379 0.266634 0.672128 -0.354092 0.650279 
7.179558 0.201687 -0.099538 0.672128 -0.354092 0.650279 
6.972108 0.167379 0.266634 0.163447 -0.524306 0.835697 
6.529557 0.133072 0.332563 0.163447 -0.524306 0.835697 
6.529557 -0.034936 0.226258 0.163447 -0.524306 0.835697 
6.668039 -0.033882 0.200734 0.163447 -0.524306 0.835697 
7.179558 0.201687 -0.099538 0.481193 -0.865209 0.140950 
6.972108 0.167379 0.266634 0.481193 -0.865209 0.140950 
6.668039 -0.033882 0.200734 0.481193 -0.865209 0.140950 
6.524265 -0.124212 0.005629 0.481193 -0.865209 0.140950 
6.524265 -0.124212 0.005629 0.135925 -0.933434 0.332003 
6.668039 -0.033882 0.200734 0.135925 -0.933434 0.332003 
-3.990260 -1.000000 1.848076 0.135925 -0.933434 0.332003 
6.668039 -0.033882 0.200734 0.173411 -0.332260 0.927109 
6.529557 -0.034936 0.226258 0.173411 -0.332260 0.927109 
-3.990260 -1.000000 1.848076 0.173411 -0.332260 0.927109 
6.529558 1.248242 0.207997 0.204938 0.605017 0.769386 
6.529557 1.257479 0.200734 0.204938 0.605017 0.769386 
-3.990260 2.725981 1.848076 0.204938 0.605017 0.769386 
6.529557 1.257479 0.200734 0.178126 0.936223 0.302914 
6.529557 1.320605 0.005629 0.178126 0.936223 0.302914 
-3.990260 2.725981 1.848076 0.178126 0.936223 0.302914 
6.529557 0.933198 -0.618132 0.048404 0.071828 -0.996242 
6.751327 0.785913 -0.617976 0.048404 0.071828 -0.996242 
-3.990259 2.725982 -1.000000 0.048404 0.071828 -0.996242 
6.751327 0.785913 -0.617976 0.043449 0.044029 -0.998085 
6.973096 0.563528 -0.618132 0.043449 0.044029 -0.998085 
-3.990259 2.725982 -1.000000 0.043449 0.044029 -0.998085 
6.973096 0.563528 -0.618132 0.045400 -0.075047 -0.996146 
6.755892 0.346201 -0.611658 0.045400 -0.075047 -0.996146 
-3.990260 -1.000000 -1.000000 0.045400 -0.075047 -0.996146 
6.755892 0.346201 -0.611658 0.037542 -0.011436 -0.999230 
6.529557 0.168817 -0.618132 0.037542 -0.011436 -0.999230 
-3.990260 -1.000000 -1.000000 0.037542 -0.011436 -0.999230 
7.007085 0.861437 -0.358679 0.525068 0.524086 -0.670550 
6.973096 0.563528 -0.618132 0.525068 0.524086 -0.670550 
6.751327 0.785913 -0.617976 0.525068 0.524086 -0.670550 
6.751327 0.785913 -0.617976 0.486562 0.583790 -0.649959 
6.785316 1.046272 -0.358679 0.486562 0.583790 -0.649959 
7.007085 0.861437 -0.358679 0.486562 0.583790 -0.649959 
7.041075 1.084245 -0.099538 0.513557 0.616178 -0.597147 
7.007085 0.861437 -0.358679 0.513557 0.616178 -0.597147 
6.785316 1.046272 -0.358679 0.513557 0.616178 -0.597147 
6.751327 0.785913 -0.617976 0.409769 0.616284 -0.672520 
6.529557 0.933198 -0.618132 0.409769 0.616284 -0.672520 
6.785316 1.046272 -0.358679 0.409769 0.616284 -0.672520 
7.041075 1.084245 -0.099538 0.305686 0.851295 -0.426443 
6.785316 1.046272 -0.358679 0.305686 0.851295 -0.426443 
6.529557 1.320605 0.005629 0.305686 0.851295 -0.426443 
6.785316 1.046272 -0.358679 0.157659 0.838867 -0.521005 
6.529557 0.933198 -0.618132 0.157659 0.838867 -0.521005 
6.529557 1.320605 0.005629 0.157659 0.838867 -0.521005 
6.973096 0.563528 -0.618132 0.431527 0.563962 -0.704082 
7.007085 0.861437 -0.358679 0.431527 0.563962 -0.704082 
7.639934 0.569430 -0.204705 0.431527 0.563962 -0.704082 
7.007085 0.861437 -0.358679 0.448681 0.647714 -0.615752 
7.041075 1.084245 -0.099538 0.448681 0.647714 -0.615752 
7.639934 0.569430 -0.204705 0.448681 0.647714 -0.615752 
7.080892 0.362636 -0.352361 0.535665 -0.601929 -0.592237 
7.179558 0.201687 -0.099538 0.535665 -0.601929 -0.592237 
6.859123 0.165280 -0.352361 0.535665 -0.601929 -0.592237 
6.859123 0.165280 -0.352361 0.522692 -0.587351 -0.617909 
6.755892 0.346201 -0.611658 0.522692 -0.587351 -0.617909 
7.080892 0.362636 -0.352361 0.522692 -0.587351 -0.617909 
6.973096 0.563528 -0.618132 0.535925 -0.554582 -0.636572 
7.080892 0.362636 -0.352361 0.535925 -0.554582 -0.636572 
6.755892 0.346201 -0.611658 0.535925 -0.554582 -0.636572 
6.755892 0.346201 -0.611658 0.494364 -0.608121 -0.621123 
6.859123 0.165280 -0.352361 0.494364 -0.608121 -0.621123 
6.529557 0.168817 -0.618132 0.494364 -0.608121 -0.621123 
7.179558 0.201687 -0.099538 0.412197 -0.687126 -0.598290 
7.080892 0.362636 -0.352361 0.412197 -0.687126 -0.598290 
7.639934 0.569430 -0.204705 0.412197 -0.687126 -0.598290 
7.080892 0.362636 -0.352361 0.408675 -0.640664 -0.650027 
6.973096 0.563528 -0.618132 0.408675 -0.640664 -0.650027 
7.639934 0.569430 -0.204705 0.408675 -0.640664 -0.650027 
6.529557 0.168817 -0.618132 0.314496 -0.860199 -0.401434 
6.859123 0.165280 -0.352361 0.314496 -0.860199 -0.401434 
6.524265 -0.124212 0.005629 0.314496 -0.860199 -0.401434 
6.859123 0.165280 -0.352361 0.372166 -0.860550 -0.347774 
7.179558 0.201687 -0.099538 0.372166 -0.860550 -0.347774 
6.524265 -0.124212 0.005629 0.372166 -0.860550 -0.347774 
-4.757951 -0.634644 0.962688 -0.000000 0.000000 -1.000000 
-4.757950 2.453870 0.962688 -0.000000 0.000000 -1.000000 
-3.208183 2.453870 0.962688 -0.000000 0.000000 -1.000000 
-3.208183 -0.634644 0.962688 -0.000000 0.000000 -1.000000 
-3.208182 2.453869 1.647779 0.000000 -0.000000 1.000000 
-4.757951 2.453870 1.647779 0.000000 -0.000000 1.000000 
-4.757951 -0.634644 1.647779 0.000000 -0.000000 1.000000 
-3.208183 -0.634645 1.647779 0.000000 -0.000000 1.000000 
-3.208183 2.453870 0.962688 1.000000 -0.000000 -0.000000 
-3.208182 2.453869 1.647779 1.000000 -0.000000 -0.000000 
-3.208183 -0.634645 1.647779 1.000000 -0.000000 -0.000000 
-3.208183 -0.634644 0.962688 1.000000 -0.000000 -0.000000 
-3.208183 -0.634644 0.962688 -0.000000 -1.000000 -0.000000 
-3.208183 -0.634645 1.647779 -0.000000 -1.000000 -0.000000 
-4.757951 -0.634644 1.647779 -0.000000 -1.000000 -0.000000 
-4.757951 -0.634644 0.962688 -0.000000 -1.000000 -0.000000 
-4.757951 -0.634644 0.962688 -1.000000 0.000000 -0.000001 
-4.757951 -0.634644 1.647779 -1.000000 0.000000 -0.000001 
-4.757951 2.453870 1.647779 -1.000000 0.000000 -0.000001 
-4.757950 2.453870 0.962688 -1.000000 0.000000 -0.000001 
-4.757950 2.453870 0.962688 0.000000 1.000000 0.000001 
-4.757951 2.453870 1.647779 0.000000 1.000000 0.000001 
-3.208182 2.453869 1.647779 0.000000 1.000000 0.000001 
-3.208183 2.453870 0.962688 0.000000 1.000000 0.000001 
-4.389629 0.023897 -0.535487 -0.000000 0.000000 -1.000000 
-4.389629 1.797326 -0.535487 -0.000000 0.000000 -1.000000 
-2.872134 1.797326 -0.535487 -0.000000 0.000000 -1.000000 
-2.872134 0.023896 -0.535487 -0.000000 0.000000 -1.000000 
-2.872133 1.797325 0.209636 0.000000 -0.000000 1.000000 
-4.389629 1.797326 0.209636 0.000000 -0.000000 1.000000 
-4.389630 0.023897 0.209636 0.000000 -0.000000 1.000000 
-2.872134 0.023896 0.209636 0.000000 -0.000000 1.000000 
-2.872134 1.797326 -0.535487 1.000000 -0.000000 -0.000000 
-2.872133 1.797325 0.209636 1.000000 -0.000000 -0.000000 
-2.872134 0.023896 0.209636 1.000000 -0.000000 -0.000000 
-2.872134 0.023896 -0.535487 1.000000 -0.000000 -0.000000 
-2.872134 0.023896 -0.535487 -0.000000 -1.000000 -0.000000 
-2.872134 0.023896 0.209636 -0.000000 -1.000000 -0.000000 
-4.389630 0.023897 0.209636 -0.000000 -1.000000 -0.000000 
-4.389629 0.023897 -0.535487 -0.000000 -1.000000 -0.000000 
-4.389629 0.023897 -0.535487 -1.000000 0.000000 -0.000001 
-4.389630 0.023897 0.209636 -1.000000 0.000000 -0.000001 
-4.389629 1.797326 0.209636 -1.000000 0.000000 -0.000001 
-4.389629 1.797326 -0.535487 -1.000000 0.000000 -0.000001 
-4.389629 1.797326 -0.535487 0.000000 1.000000 0.000001 
-4.389629 1.797326 0.209636 0.000000 1.000000 0.000001 
-2.872133 1.797325 0.209636 0.000000 1.000000 0.000001 
-2.872134 1.797326 -0.535487 0.000000 1.000000 0.000001 
-2.914147 -3.269986 -0.538404 0.004483 -0.417695 0.908576 
-2.414210 -3.276030 -0.543649 0.004483 -0.417695 0.908576 
-2.369627 -0.639745 0.668095 0.004483 -0.417695 0.908576 
-3.414083 -3.263943 -0.533159 0.004484 -0.417695 0.908576 
-2.914147 -3.269986 -0.538404 0.004484 -0.417695 0.908576 
-3.369498 -0.627657 0.678585 0.004484 -0.417695 0.908576 
-3.369498 -0.627657 0.678585 0.004483 -0.417695 0.908576 
-1.914275 -3.282075 -0.548895 0.004483 -0.417695 0.908576 
-1.414339 -3.288119 -0.554140 0.004483 -0.417695 0.908576 
-1.369755 -0.651833 0.657604 0.004483 -0.417695 0.908576 
-3.427934 -4.088458 -0.788321 0.006448 -0.295729 0.955250 
-2.927998 -4.094501 -0.793566 0.006448 -0.295729 0.955250 
-2.914147 -3.269986 -0.538404 0.006448 -0.295729 0.955250 
-3.414083 -3.263943 -0.533159 0.006448 -0.295729 0.955250 
-2.927998 -4.094501 -0.793566 0.006447 -0.295729 0.955250 
-2.428062 -4.100547 -0.798812 0.006447 -0.295729 0.955250 
-2.414210 -3.276030 -0.543649 0.006447 -0.295729 0.955250 
-2.914147 -3.269986 -0.538404 0.006447 -0.295729 0.955250 
-3.447349 -5.667940 -1.242366 0.006742 -0.276346 0.961034 
-2.947412 -5.673984 -1.247612 0.006742 -0.276346 0.961034 
-2.927998 -4.094501 -0.793566 0.006742 -0.276346 0.961034 
-3.427934 -4.088458 -0.788321 0.006742 -0.276346 0.961034 
-2.447476 -5.680028 -1.252857 0.006742 -0.276346 0.961034 
-2.428062 -4.100547 -0.798812 0.006742 -0.276346 0.961034 
-1.928126 -4.106590 -0.804057 0.006447 -0.295729 0.955250 
-1.914275 -3.282075 -0.548895 0.006447 -0.295729 0.955250 
-1.428190 -4.112633 -0.809302 0.006447 -0.295729 0.955250 
-1.414339 -3.288119 -0.554140 0.006447 -0.295729 0.955250 
-2.447476 -5.680028 -1.252857 0.006743 -0.276346 0.961034 
-1.947540 -5.686071 -1.258102 0.006743 -0.276346 0.961034 
-1.928126 -4.106590 -0.804057 0.006743 -0.276346 0.961034 
-2.428062 -4.100547 -0.798812 0.006743 -0.276346 0.961034 
-1.947540 -5.686071 -1.258102 0.006742 -0.276346 0.961034 
-1.447604 -5.692115 -1.263347 0.006742 -0.276346 0.961034 
-1.428190 -4.112633 -0.809302 0.006742 -0.276346 0.961034 
-1.928126 -4.106590 -0.804057 0.006742 -0.276346 0.961034 
-1.369755 -0.651833 0.657604 0.999872 -0.012087 -0.010490 
-1.414339 -3.288119 -0.554140 0.999872 -0.012087 -0.010490 
-1.376741 -0.623999 -0.040303 0.999872 -0.012087 -0.010490 
-3.414083 -3.263943 -0.533159 -0.999872 0.012087 0.010492 
-3.369498 -0.627657 0.678585 -0.999872 0.012087 0.010492 
-3.376485 -0.599824 -0.019322 -0.999872 0.012087 0.010492 
-3.990260 0.862991 1.848076 -1.000000 0.000000 -0.000000 
-3.990259 2.725982 -1.000000 -1.000000 0.000000 -0.000000 
-3.990260 -1.000000 -1.000000 -1.000000 0.000000 -0.000000 
-3.990260 -1.000000 1.848076 -1.000000 0.000000 -0.000000 
-3.990260 2.725981 1.848076 -1.000000 0.000000 -0.000000 
1.269649 -0.387727 1.081487 0.120151 0.188229 0.974748 
-3.990260 -1.000000 1.848076 0.120151 0.188229 0.974748 
6.529557 0.133072 0.332563 0.120151 0.188229 0.974748 
-3.990260 2.725981 1.848076 0.020782 -0.582959 0.812236 
1.269649 1.842556 1.079441 0.020782 -0.582959 0.812236 
6.529557 0.989443 0.332563 0.020782 -0.582959 0.812236 
1.269649 0.719161 1.776580 0.186502 -0.522475 0.832007 
1.269649 -0.387727 1.081487 0.186502 -0.522475 0.832007 
3.899603 0.181498 0.849416 0.186502 -0.522475 0.832007 
3.899603 0.181498 0.849416 0.332483 -0.000000 0.943109 
3.899603 1.112994 0.849416 0.332483 -0.000000 0.943109 
1.269649 0.719161 1.776580 0.332483 -0.000000 0.943109 
1.269649 1.842556 1.079441 0.215410 0.514907 0.829741 
1.269649 0.719161 1.776580 0.215410 0.514907 0.829741 
3.899603 1.112994 0.849416 0.215410 0.514907 0.829741 
3.899603 1.112994 0.849416 0.187876 -0.000000 0.982193 
3.899603 0.181498 0.849416 0.187876 -0.000000 0.982193 
6.529557 0.575331 0.346353 0.187876 -0.000000 0.982193 
1.269649 0.719161 1.776580 0.284523 0.505492 0.814570 
1.269649 1.842556 1.079441 0.284523 0.505492 0.814570 
-1.399401 1.643336 2.135350 0.284523 0.505492 0.814570 
-1.399401 1.643336 2.135350 0.130797 -0.007116 0.991384 
-1.239625 -0.017597 2.102349 0.130797 -0.007116 0.991384 
1.269649 0.719161 1.776580 0.130797 -0.007116 0.991384 
1.269649 -0.387727 1.081487 0.257143 -0.513923 0.818389 
1.269649 0.719161 1.776580 0.257143 -0.513923 0.818389 
-1.239625 -0.017597 2.102349 0.257143 -0.513923 0.818389 
-1.239625 -0.017597 2.102349 -0.101372 -0.029510 0.994411 
-1.399401 1.643336 2.135350 -0.101372 -0.029510 0.994411 
-3.990260 0.862991 1.848076 -0.101372 -0.029510 0.994411 
1.269649 -0.387727 1.081487 0.182363 -0.691512 0.698967 
-1.239625 -0.017597 2.102349 0.182363 -0.691512 0.698967 
-3.990260 -1.000000 1.848076 0.182363 -0.691512 0.698967 
-1.239625 -0.017597 2.102349 -0.092049 0.000000 0.995754 
-3.990260 0.862991 1.848076 -0.092049 0.000000 0.995754 
-3.990260 -1.000000 1.848076 -0.092049 0.000000 0.995754 
-3.990260 0.862991 1.848076 -0.110205 0.000000 0.993909 
-1.399401 1.643336 2.135350 -0.110205 0.000000 0.993909 
-3.990260 2.725981 1.848076 -0.110205 0.000000 0.993909 
-1.399401 1.643336 2.135350 0.216990 0.699850 0.680533 
1.269649 1.842556 1.079441 0.216990 0.699850 0.680533 
-3.990260 2.725981 1.848076 0.216990 0.699850 0.680533 
6.529557 0.575331 0.346353 0.192205 -0.030586 0.980878 
3.899603 0.181498 0.849416 0.192205 -0.030586 0.980878 
6.529557 0.133072 0.332563 0.192205 -0.030586 0.980878 
3.899603 0.181498 0.849416 0.168323 -0.412735 0.895163 
1.269649 -0.387727 1.081487 0.168323 -0.412735 0.895163 
6.529557 0.133072 0.332563 0.168323 -0.412735 0.895163 
1.269649 1.842556 1.079441 0.193976 0.419680 0.886703 
3.899603 1.112994 0.849416 0.193976 0.419680 0.886703 
6.529557 0.989443 0.332563 0.193976 0.419680 0.886703 
3.899603 1.112994 0.849416 0.194211 0.032649 0.980416 
6.529557 0.575331 0.346353 0.194211 0.032649 0.980416 
6.529557 0.989443 0.332563 0.194211 0.032649 0.980416 
-1.447766 -5.691469 -1.279565 0.999900 -0.014129 0.000734 
-1.412254 -3.157734 -0.884836 0.999900 -0.014129 0.000734 
-1.414339 -3.288119 -0.554140 0.999900 -0.014129 0.000734 
-1.412254 -3.157734 -0.884836 0.999898 -0.014244 0.000688 
-1.376741 -0.623999 -0.040303 0.999898 -0.014244 0.000688 
-1.414339 -3.288119 -0.554140 0.999898 -0.014244 0.000688 
-3.376485 -0.599824 -0.019322 -0.999898 0.014244 -0.000688 
-3.411998 -3.133559 -0.863855 -0.999898 0.014244 -0.000688 
-3.414083 -3.263943 -0.533159 -0.999898 0.014244 -0.000688 
-3.411998 -3.133559 -0.863855 -0.999900 0.014129 -0.000733 
-3.447510 -5.667294 -1.258584 -0.999900 0.014129 -0.000733 
-3.414083 -3.263943 -0.533159 -0.999900 0.014129 -0.000733 
-1.412254 -3.157734 -0.884836 -0.008504 0.154043 -0.988028 
-1.447766 -5.691469 -1.279565 -0.008504 0.154043 -0.988028 
-2.447638 -5.679381 -1.269075 -0.008504 0.154043 -0.988028 
-2.412126 -3.145646 -0.874346 -0.008504 0.154043 -0.988028 
-1.376741 -0.623999 -0.040303 -0.006129 0.316284 -0.948645 
-1.412254 -3.157734 -0.884836 -0.006129 0.316284 -0.948645 
-2.412126 -3.145646 -0.874346 -0.006129 0.316284 -0.948645 
-2.376613 -0.611912 -0.029812 -0.006129 0.316284 -0.948645 
-3.447510 -5.667294 -1.258584 -0.008504 0.154043 -0.988028 
-3.411998 -3.133559 -0.863855 -0.008504 0.154043 -0.988028 
-3.411998 -3.133559 -0.863855 -0.006129 0.316284 -0.948645 
-3.376485 -0.599824 -0.019322 -0.006129 0.316284 -0.948645 
-2.446243 2.295014 -0.172938 -0.018811 -0.262225 -0.964823 
-2.487329 4.872423 -0.872640 -0.018811 -0.262225 -0.964823 
-1.487603 4.880899 -0.894436 -0.018811 -0.262225 -0.964823 
-1.446517 2.303491 -0.194734 -0.018811 -0.262225 -0.964823 
-2.487329 4.872423 -0.872640 -0.020861 -0.098012 -0.994967 
-2.513695 7.424533 -1.123491 -0.020861 -0.098012 -0.994967 
-1.513969 7.433009 -1.145287 -0.020861 -0.098012 -0.994967 
-1.487603 4.880899 -0.894436 -0.020861 -0.098012 -0.994967 
-3.445970 2.286538 -0.151143 -0.018811 -0.262225 -0.964823 
-3.487056 4.863948 -0.850845 -0.018811 -0.262225 -0.964823 
-3.487056 4.863948 -0.850845 -0.020861 -0.098012 -0.994967 
-3.513422 7.416057 -1.101696 -0.020861 -0.098012 -0.994967 
-1.487603 4.880899 -0.894436 0.999427 0.007071 -0.033112 
-1.513969 7.433009 -1.145287 0.999427 0.007071 -0.033112 
-1.477216 4.992492 -0.557088 0.999427 0.007071 -0.033112 
-1.446517 2.303491 -0.194734 0.999429 0.006953 -0.033073 
-1.487603 4.880899 -0.894436 0.999429 0.006953 -0.033073 
-1.477216 4.992492 -0.557088 0.999429 0.006953 -0.033073 
-3.487056 4.863948 -0.850845 -0.999429 -0.006953 0.033073 
-3.445970 2.286538 -0.151143 -0.999429 -0.006953 0.033073 
-3.476669 4.975540 -0.513497 -0.999429 -0.006953 0.033073 
-3.513422 7.416057 -1.101696 -0.999427 -0.007071 0.033112 
-3.487056 4.863948 -0.850845 -0.999427 -0.007071 0.033112 
-3.476669 4.975540 -0.513497 -0.999427 -0.007071 0.033112 
-1.477216 4.992492 -0.557088 0.999727 0.008476 -0.021794 
-1.431196 2.291871 0.503498 0.999727 0.008476 -0.021794 
-1.446517 2.303491 -0.194734 0.999727 0.008476 -0.021794 
-3.430648 2.274918 0.547089 -0.999726 -0.008476 0.021796 
-3.476669 4.975540 -0.513497 -0.999726 -0.008476 0.021796 
-3.445970 2.286538 -0.151143 -0.999726 -0.008476 0.021796 
-3.013203 7.420023 -1.096368 0.019376 0.221650 0.974934 
-3.513066 7.415786 -1.085471 0.019376 0.221650 0.974934 
-3.487102 5.813210 -0.721643 0.019376 0.221650 0.974934 
-2.987239 5.817449 -0.732541 0.019376 0.221650 0.974934 
-2.513339 7.424263 -1.107266 0.019375 0.221650 0.974934 
-3.013203 7.420023 -1.096368 0.019375 0.221650 0.974934 
-2.987239 5.817449 -0.732541 0.019375 0.221650 0.974934 
-2.487375 5.821687 -0.743438 0.019375 0.221650 0.974934 
-2.987239 5.817449 -0.732541 0.019107 0.241329 0.970255 
-3.487102 5.813210 -0.721643 0.019107 0.241329 0.970255 
-3.476669 4.975540 -0.513497 0.019107 0.241329 0.970255 
-2.976805 4.979778 -0.524395 0.019107 0.241329 0.970255 
-2.487375 5.821687 -0.743438 0.019107 0.241329 0.970255 
-2.476942 4.984015 -0.535292 0.019107 0.241329 0.970255 
-2.013476 7.428501 -1.118164 0.019376 0.221650 0.974934 
-2.513339 7.424263 -1.107266 0.019376 0.221650 0.974934 
-2.487375 5.821687 -0.743438 0.019376 0.221650 0.974934 
-1.987512 5.825923 -0.754336 0.019376 0.221650 0.974934 
-1.513612 7.432738 -1.129061 0.019376 0.221650 0.974934 
-1.487649 5.830162 -0.765234 0.019376 0.221650 0.974934 
-1.987512 5.825923 -0.754336 0.019107 0.241329 0.970255 
-1.977079 4.988253 -0.546190 0.019107 0.241329 0.970255 
-1.487649 5.830162 -0.765234 0.019106 0.241329 0.970255 
-1.987512 5.825923 -0.754336 0.019106 0.241329 0.970255 
-1.977079 4.988253 -0.546190 0.019106 0.241329 0.970255 
-1.477216 4.992492 -0.557088 0.019106 0.241329 0.970255 
-2.976805 4.979778 -0.524395 0.017186 0.365741 0.930558 
-3.430648 2.274918 0.547089 0.017186 0.365741 0.930558 
-2.430922 2.283395 0.525294 0.017186 0.365741 0.930558 
-2.476942 4.984015 -0.535292 0.017188 0.365741 0.930558 
-2.976805 4.979778 -0.524395 0.017188 0.365741 0.930558 
-2.430922 2.283395 0.525294 0.017188 0.365741 0.930558 
-3.476669 4.975540 -0.513497 0.017186 0.365741 0.930558 
-1.977079 4.988253 -0.546190 0.017187 0.365741 0.930558 
-2.430922 2.283395 0.525294 0.017187 0.365741 0.930558 
-1.431196 2.291871 0.503498 0.017187 0.365741 0.930558 
-1.477216 4.992492 -0.557088 0.017185 0.365741 0.930558 
-1.977079 4.988253 -0.546190 0.017185 0.365741 0.930558 
-1.431196 2.291871 0.503498 0.017185 0.365741 0.930558 
-2.476942 4.984015 -0.535292 0.017187 0.365741 0.930558 
3 0 1 2
3 3 4 5
3 6 7 8
3 9 10 11
3 12 13 14
3 15 16 17
3 18 19 20
4 21 22 23 24
4 25 26 27 28
4 29 30 31 32
4 33 34 35 36
4 37 38 39 40
4 41 42 43 44
4 45 46 47 48
4 49 50 51 52
3 53 54 55
3 56 57 58
3 59 60 61
3 62 63 64
3 65 66 67
3 68 69 70
3 71 72 73
3 74 75 76
3 77 78 79
3 80 81 82
3 83 84 85
3 86 87 88
3 89 90 91
3 92 93 94
3 95 96 97
3 98 99 100
3 101 102 103
3 104 105 106
3 107 108 109
3 110 111 112
3 113 114 115
3 116 117 118
3 119 120 121
3 122 123 124
4 125 126 127 128
4 129 130 131 132
4 133 134 135 136
4 137 138 139 140
4 141 142 143 144
4 145 146 147 148
4 149 150 151 152
4 153 154 155 156
4 157 158 159 160
4 161 162 163 164
4 165 166 167 168
4 169 170 171 172
3 173 174 175
3 176 177 178
3 173 175 179
3 180 181 182
3 174 180 175
3 180 182 175
4 183 184 185 186
4 187 188 189 190
4 191 192 193 194
4 192 195 196 193
4 188 197 198 189
4 197 199 200 198
4 201 202 203 204
4 205 206 207 208
3 209 210 211
3 212 213 214
3 215 216 217
3 218 215 217
3 215 219 216
3 220 221 222
3 223 224 225
3 226 227 228
3 229 230 231
3 232 233 234
3 235 236 237
3 238 239 240
3 241 242 243
3 244 245 246
3 247 248 249
3 250 251 252
3 253 254 255
3 256 257 258
3 259 260 261
3 262 263 264
3 265 266 267
3 268 269 270
3 271 272 273
3 274 275 276
3 277 278 279
3 280 281 282
3 283 284 285
4 286 287 288 289
4 290 291 292 293
4 289 288 294 295
4 293 292 296 297
4 298 299 300 301
4 302 303 304 305
4 306 307 299 298
4 308 309 303 302
3 310 311 312
3 313 314 315
3 316 317 318
3 319 320 321
3 322 323 324
3 325 326 327
4 328 329 330 331
4 332 333 334 335
4 336 337 338 339
4 340 336 339 341
4 342 343 344 345
4 346 342 345 347
4 348 340 341 349
4 350 351 352 353
3 354 355 356
3 357 358 359
3 354 360 355
3 361 362 363
3 364 365 366
3 361 367 362
