ply
format ascii 1.0
comment Created by Blender 2.59 (sub 0) - www.blender.org, source file: 'newarrow.blend'
element vertex 78
property float x
property float y
property float z
property float nx
property float ny
property float nz
element face 22
property list uchar uint vertex_indices
end_header
-0.232152 -0.106326 -0.195441 -0.004246 0.002922 -0.999987 
-0.734821 -0.103379 -0.193298 -0.004246 0.002922 -0.999987 
0.024519 1.000000 -0.193298 -0.004246 0.002922 -0.999987 
0.024519 1.000000 -0.193298 0.005610 0.003501 -0.999978 
0.734821 -0.138377 -0.193298 0.005610 0.003501 -0.999978 
0.257529 -0.115415 -0.195896 0.005610 0.003501 -0.999978 
-0.233073 -1.223125 -0.197795 -0.000451 0.001914 -0.999998 
-0.232152 -0.106326 -0.195441 -0.000451 0.001914 -0.999998 
0.257529 -0.115415 -0.195896 -0.000451 0.001914 -0.999998 
0.247288 -1.223125 -0.197795 -0.000451 0.001914 -0.999998 
0.024519 1.000000 -0.193298 -0.000889 0.002143 -0.999997 
0.257529 -0.115415 -0.195896 -0.000889 0.002143 -0.999997 
-0.232152 -0.106326 -0.195441 -0.000889 0.002143 -0.999997 
0.257529 -0.115416 0.190701 -0.005610 -0.003501 0.999978 
0.734822 -0.138377 0.193298 -0.005610 -0.003501 0.999978 
0.024519 1.000000 0.193298 -0.005610 -0.003501 0.999978 
0.024519 1.000000 0.193298 0.004246 -0.002922 0.999987 
-0.734822 -0.103379 0.193298 0.004246 -0.002922 0.999987 
-0.232152 -0.106326 0.191156 0.004246 -0.002922 0.999987 
0.247287 -1.223126 0.188802 0.000451 -0.001914 0.999998 
0.257529 -0.115416 0.190701 0.000451 -0.001914 0.999998 
-0.232152 -0.106326 0.191156 0.000451 -0.001914 0.999998 
-0.233074 -1.223125 0.188802 0.000451 -0.001914 0.999998 
0.024519 1.000000 0.193298 0.000889 -0.002143 0.999997 
-0.232152 -0.106326 0.191156 0.000889 -0.002143 0.999997 
0.257529 -0.115416 0.190701 0.000889 -0.002143 0.999997 
0.734821 -0.138377 0.072491 -0.048052 -0.998845 -0.000002 
0.734822 -0.138377 0.193298 -0.048052 -0.998845 -0.000002 
0.257529 -0.115416 0.190701 -0.048052 -0.998845 -0.000002 
0.257529 -0.115416 0.069894 -0.048052 -0.998845 -0.000002 
0.734821 -0.138377 -0.193298 -0.048052 -0.998845 -0.000001 
0.734821 -0.138377 0.072491 -0.048052 -0.998845 -0.000001 
0.257529 -0.115416 0.069894 -0.048052 -0.998845 -0.000001 
0.257529 -0.115415 -0.195896 -0.048052 -0.998845 -0.000001 
0.257529 -0.115416 0.069894 0.999957 -0.009246 0.000001 
0.257529 -0.115416 0.190701 0.999957 -0.009246 0.000001 
0.247287 -1.223126 0.188802 0.999957 -0.009246 0.000001 
0.247288 -1.223125 0.067995 0.999957 -0.009246 0.000001 
0.257529 -0.115415 -0.195896 0.999957 -0.009245 0.000001 
0.257529 -0.115416 0.069894 0.999957 -0.009245 0.000001 
0.247288 -1.223125 0.067995 0.999957 -0.009245 0.000001 
0.247288 -1.223125 -0.197795 0.999957 -0.009245 0.000001 
0.247288 -1.223125 -0.197795 -0.000001 -1.000000 -0.000000 
0.247288 -1.223125 0.067995 -0.000001 -1.000000 -0.000000 
-0.233074 -1.223125 0.067995 -0.000001 -1.000000 -0.000000 
-0.233073 -1.223125 -0.197795 -0.000001 -1.000000 -0.000000 
0.247288 -1.223125 0.067995 -0.000001 -1.000000 -0.000001 
0.247287 -1.223126 0.188802 -0.000001 -1.000000 -0.000001 
-0.233074 -1.223125 0.188802 -0.000001 -1.000000 -0.000001 
-0.233074 -1.223125 0.067995 -0.000001 -1.000000 -0.000001 
-0.233074 -1.223125 0.067995 -1.000000 0.000826 -0.000001 
-0.233074 -1.223125 0.188802 -1.000000 0.000826 -0.000001 
-0.232152 -0.106326 0.191156 -1.000000 0.000826 -0.000001 
-0.232152 -0.106326 0.070349 -1.000000 0.000826 -0.000001 
-0.233073 -1.223125 -0.197795 -1.000000 0.000826 -0.000000 
-0.233074 -1.223125 0.067995 -1.000000 0.000826 -0.000000 
-0.232152 -0.106326 0.070349 -1.000000 0.000826 -0.000000 
-0.232152 -0.106326 -0.195441 -1.000000 0.000826 -0.000000 
-0.232152 -0.106326 0.070349 -0.005864 -0.999983 -0.000001 
-0.232152 -0.106326 0.191156 -0.005864 -0.999983 -0.000001 
-0.734822 -0.103379 0.193298 -0.005864 -0.999983 -0.000001 
-0.734821 -0.103379 0.072491 -0.005864 -0.999983 -0.000001 
-0.232152 -0.106326 -0.195441 -0.005864 -0.999983 -0.000000 
-0.232152 -0.106326 0.070349 -0.005864 -0.999983 -0.000000 
-0.734821 -0.103379 0.072491 -0.005864 -0.999983 -0.000000 
-0.734821 -0.103379 -0.193298 -0.005864 -0.999983 -0.000000 
0.734821 -0.138377 0.072491 0.848395 0.529364 -0.000000 
0.734821 -0.138377 -0.193298 0.848395 0.529364 -0.000000 
0.024519 1.000000 -0.193298 0.848395 0.529364 -0.000000 
0.024519 1.000000 0.072491 0.848395 0.529364 -0.000000 
0.734822 -0.138377 0.193298 0.848395 0.529364 0.000000 
0.024519 1.000000 0.193298 0.848395 0.529364 0.000000 
0.024519 1.000000 0.072491 -0.823774 0.566918 0.000000 
0.024519 1.000000 -0.193298 -0.823774 0.566918 0.000000 
-0.734821 -0.103379 -0.193298 -0.823774 0.566918 0.000000 
-0.734821 -0.103379 0.072491 -0.823774 0.566918 0.000000 
0.024519 1.000000 0.193298 -0.823774 0.566918 0.000000 
-0.734822 -0.103379 0.193298 -0.823774 0.566918 0.000000 
3 0 1 2
3 3 4 5
4 6 7 8 9
3 10 11 12
3 13 14 15
3 16 17 18
4 19 20 21 22
3 23 24 25
4 26 27 28 29
4 30 31 32 33
4 34 35 36 37
4 38 39 40 41
4 42 43 44 45
4 46 47 48 49
4 50 51 52 53
4 54 55 56 57
4 58 59 60 61
4 62 63 64 65
4 66 67 68 69
4 70 66 69 71
4 72 73 74 75
4 76 72 75 77
