ply
format ascii 1.0
comment Created by Blender 2.59 (sub 0) - www.blender.org, source file: ''
element vertex 83
property float x
property float y
property float z
property float nx
property float ny
property float nz
element face 44
property list uchar uint vertex_indices
end_header
0.410725 -0.250063 -1.000000 -0.000001 -1.000000 -0.000000 
0.410724 -0.250063 -0.454413 -0.000001 -1.000000 -0.000000 
-0.410816 -0.250062 -0.454413 -0.000001 -1.000000 -0.000000 
-0.410815 -0.250063 -1.000000 -0.000001 -1.000000 -0.000000 
0.000000 2.731504 -1.000000 0.000000 0.000000 -1.000000 
0.410725 -0.250063 -1.000000 0.000000 0.000000 -1.000000 
-0.410815 -0.250063 -1.000000 0.000000 0.000000 -1.000000 
0.000000 2.731504 -0.454413 0.000000 -0.000000 1.000000 
-0.410816 -0.250062 -0.454413 0.000000 -0.000000 1.000000 
0.410724 -0.250063 -0.454413 0.000000 -0.000000 1.000000 
-1.000000 1.399059 -0.454413 0.000000 0.000000 1.000000 
-0.371097 1.377946 -0.454413 0.000000 0.000000 1.000000 
-0.410816 -0.250062 -0.454413 -0.999703 0.024390 -0.000000 
-0.371097 1.377946 -0.590810 -0.999703 0.024390 -0.000000 
-0.410815 -0.250063 -1.000000 -0.999703 0.024390 -0.000000 
-0.371097 1.377946 -0.454413 -0.033553 -0.999437 -0.000001 
-1.000000 1.399059 -0.454413 -0.033553 -0.999437 -0.000001 
-1.000000 1.399059 -0.590810 -0.033553 -0.999437 -0.000001 
-1.000000 1.399059 -0.590810 -0.033552 -0.999437 -0.000002 
-0.371097 1.377946 -0.590810 -0.033552 -0.999437 -0.000002 
-0.371097 1.377946 -0.454413 -0.033552 -0.999437 -0.000002 
-0.410816 -0.250062 -0.454413 -0.999703 0.024390 -0.000001 
-0.371097 1.377946 -0.454413 -0.999703 0.024390 -0.000001 
-0.371097 1.377946 -0.590810 -0.999703 0.024390 -0.000001 
-0.371097 1.377946 -0.590810 -0.033552 -0.999437 -0.000001 
-1.000000 1.399059 -0.590810 -0.033552 -0.999437 -0.000001 
-1.000000 1.399059 -0.727207 -0.033552 -0.999437 -0.000001 
-1.000000 1.399059 -0.590810 -0.799808 0.600256 0.000001 
0.000000 2.731504 -0.454413 -0.799808 0.600256 0.000001 
0.000000 2.731504 -0.727207 -0.799808 0.600256 0.000001 
-1.000000 1.399059 -0.727207 -0.799808 0.600256 -0.000000 
-1.000000 1.399059 -0.590810 -0.799808 0.600256 -0.000000 
0.000000 2.731504 -0.727207 -0.799808 0.600256 -0.000000 
-1.000000 1.399059 -0.454413 -0.799808 0.600256 0.000000 
0.000000 2.731504 -0.454413 -0.799808 0.600256 0.000000 
-0.371097 1.377946 -1.000000 0.000000 0.000000 -1.000000 
-1.000000 1.399060 -1.000000 0.000000 -0.000000 -1.000000 
-0.371097 1.377946 -0.863603 -0.033553 -0.999437 -0.000001 
-1.000000 1.399059 -0.727207 -0.033553 -0.999437 -0.000001 
-1.000000 1.399059 -0.863603 -0.033553 -0.999437 -0.000001 
-0.371097 1.377946 -1.000000 -0.033553 -0.999437 -0.000001 
-0.371097 1.377946 -0.863603 -0.999703 0.024390 -0.000000 
-0.371097 1.377946 -1.000000 -0.999703 0.024390 -0.000000 
-1.000000 1.399060 -1.000000 -0.033553 -0.999437 -0.000001 
-1.000000 1.399059 -0.863603 -0.799808 0.600256 0.000001 
0.000000 2.731504 -1.000000 -0.799808 0.600256 0.000001 
-1.000000 1.399060 -1.000000 -0.799808 0.600256 0.000000 
-1.000000 1.399059 -0.863603 -0.799808 0.600256 0.000000 
0.000000 2.731504 -1.000000 -0.799808 0.600256 0.000000 
-1.000000 1.399059 -0.727207 -0.033553 -0.999437 0.000000 
-0.371097 1.377946 -0.863603 -0.033553 -0.999437 0.000000 
-0.371097 1.377946 -0.590810 -0.033553 -0.999437 0.000000 
1.000000 1.358913 -1.000000 0.000000 0.000000 -1.000000 
0.365017 1.364984 -1.000000 0.000000 0.000000 -1.000000 
0.365017 1.364984 -0.454413 0.000000 0.000000 1.000000 
1.000000 1.358913 -0.454413 0.000000 0.000000 1.000000 
0.365017 1.364984 -0.863603 -0.009560 -0.999954 -0.000001 
1.000000 1.358913 -0.727207 -0.009560 -0.999954 -0.000001 
0.365017 1.364984 -0.590810 -0.009560 -0.999954 -0.000001 
0.410725 -0.250063 -1.000000 0.999600 0.028290 0.000001 
0.365017 1.364984 -0.863603 0.999600 0.028290 0.000001 
0.365017 1.364984 -0.590810 0.999600 0.028290 0.000001 
0.410724 -0.250063 -0.454413 0.999600 0.028290 0.000001 
0.365017 1.364984 -1.000000 -0.009560 -0.999954 -0.000001 
1.000000 1.358913 -1.000000 -0.009560 -0.999954 -0.000001 
1.000000 1.358913 -0.863603 -0.009560 -0.999954 -0.000001 
0.410725 -0.250063 -1.000000 0.999600 0.028290 -0.000001 
0.365017 1.364984 -1.000000 0.999600 0.028290 -0.000001 
0.365017 1.364984 -0.863603 0.999600 0.028290 -0.000001 
1.000000 1.358913 -0.590810 -0.009560 -0.999954 -0.000001 
0.365017 1.364984 -0.454413 -0.009560 -0.999954 -0.000001 
0.410724 -0.250063 -0.454413 0.999600 0.028289 -0.000001 
0.365017 1.364984 -0.590810 0.999600 0.028289 -0.000001 
0.365017 1.364984 -0.454413 0.999600 0.028289 -0.000001 
1.000000 1.358913 -0.454413 -0.009560 -0.999954 -0.000001 
1.000000 1.358913 -0.863603 0.808245 0.588846 0.000000 
0.000000 2.731504 -1.000000 0.808245 0.588846 0.000000 
0.000000 2.731504 -0.727207 0.808245 0.588846 0.000000 
1.000000 1.358913 -0.727207 0.808245 0.588846 -0.000000 
1.000000 1.358913 -1.000000 0.808245 0.588846 -0.000000 
1.000000 1.358913 -0.590810 0.808245 0.588846 0.000000 
0.000000 2.731504 -0.454413 0.808245 0.588846 0.000000 
1.000000 1.358913 -0.454413 0.808245 0.588846 -0.000000 
4 0 1 2 3
3 4 5 6
3 7 8 9
3 10 11 7
3 11 8 7
3 12 13 14
3 15 16 17
3 18 19 20
3 21 22 23
3 24 25 26
3 27 28 29
3 30 31 32
3 31 33 34
3 6 35 4
3 35 36 4
3 37 38 39
3 39 40 37
3 14 41 42
3 40 39 43
3 44 29 45
3 46 47 48
3 47 30 32
3 49 50 51
3 41 14 13
3 52 53 4
3 53 5 4
3 9 54 7
3 54 55 7
3 56 57 58
4 59 60 61 62
3 63 64 65
3 65 56 63
3 66 67 68
3 56 65 57
3 58 57 69
3 69 70 58
3 71 72 73
3 70 69 74
3 75 76 77
3 78 75 77
3 75 79 76
3 80 77 81
3 82 80 81
3 80 78 77
