# Blender v2.59 (sub 0) OBJ File: ''
# www.blender.org
mtllib skybox.mtl
o Cube
v 1.000000 -1.000000 -1.000000
v 1.000000 -1.000000 1.000000
v -1.000000 -1.000000 1.000000
v -1.000000 -1.000000 -1.000000
v 1.000000 1.000000 -0.999999
v 0.999999 1.000000 1.000001
v -1.000000 1.000000 1.000000
v -1.000000 1.000000 -1.000000
vt 0.000000 0.334353
vt 0.001019 0.666667
vt 0.333333 0.665647
vt 0.332314 0.333333
vt 1.000000 0.001019
vt 0.667686 0.000000
vt 0.666667 0.332314
vt 0.998981 0.333333
vt 0.666667 0.334353
vt 0.667686 0.666667
vt 1.000000 0.665647
vt 0.334353 0.666667
vt 0.666667 0.665647
vt 0.665647 0.333333
vt 0.333333 0.334353
vt 0.333333 0.332314
vt 0.332314 0.000000
vt 0.000000 0.001020
vt 0.001020 0.333333
vt 0.665647 0.000000
vt 0.333333 0.001019
vt 0.334353 0.333333
vn 0.000000 1.000000 0.000000
vn 0.000000 -1.000000 0.000000
vn -1.000000 -0.000000 -0.000000
vn 0.000000 0.000000 -1.000000
vn 1.000000 0.000000 0.000000
vn -0.000000 -0.000000 1.000000
usemtl Material_cube.png
s off
f 1/1/1 4/2/1 3/3/1 2/4/1
f 5/5/2 6/6/2 7/7/2 8/8/2
f 1/8/3 2/9/3 6/10/3 5/11/3
f 2/12/4 3/13/4 7/14/4 6/15/4
f 3/16/5 4/17/5 8/18/5 7/19/5
f 4/7/6 1/20/6 5/21/6 8/22/6
