# Blender v2.58 (sub 0) OBJ File: 'diamond.blend'
# www.blender.org
mtllib diamond.mtl
o Diamond_Plane
v 0.100775 0.095178 0.199117
v 0.198942 0.095540 0.099660
v 0.197887 0.095342 -0.101339
v 0.099587 0.095679 -0.200330
v -0.099799 0.095349 -0.200468
v -0.198246 0.096009 -0.100594
v -0.199472 0.095412 0.099140
v -0.100759 0.095204 0.198766
v -0.056443 0.162564 0.114769
v -0.113089 0.162026 0.056180
v -0.113316 0.162580 -0.059720
v -0.055889 0.162199 -0.117488
v 0.058705 0.162390 -0.116756
v 0.116599 0.160640 -0.058563
v 0.116486 0.161412 0.056479
v 0.056669 0.162549 0.114801
v -0.000798 0.161468 -0.001977
v 0.000498 -0.204908 -0.001178
vt 0.767313 0.570798
vt 0.633519 0.639279
vt 0.699139 0.502075
vt 0.562957 0.502792
vt 0.494068 0.571891
vt 0.494068 0.708608
vt 0.565087 0.777997
vt 0.699507 0.778093
vt 0.766894 0.708532
vt 0.831267 0.502075
vt 0.664912 0.502075
vt 0.705366 0.378031
vt 0.790574 0.379011
vt 0.495610 0.338326
vt 0.618572 0.296542
vt 0.494068 0.170635
vt 0.618221 0.207485
vt 0.662804 0.000000
vt 0.703197 0.122771
vt 0.836032 0.001118
vt 0.788991 0.122373
vt 1.000000 0.171231
vt 0.874675 0.206941
vt 0.995141 0.339613
vt 0.875854 0.292419
vt 0.173726 0.669321
vt 0.000000 0.621867
vt 0.171948 0.334702
vt 0.296187 0.644882
vt 0.438330 0.535077
vt 0.494068 0.423569
vt 0.494068 0.245397
vt 0.438548 0.133049
vt 0.297013 0.024306
vt 0.174067 0.000000
vn 0.008789 0.999959 0.002144
vn -0.001706 0.999973 0.007150
vn 0.014551 0.999773 0.015576
vn 0.003813 0.999970 -0.006706
vn 0.006741 0.999898 -0.012580
vn 0.000131 0.999956 -0.009328
vn 0.000149 0.999957 -0.009320
vn 0.007444 0.999961 0.004766
vn -0.423514 0.805656 0.414191
vn -0.000663 0.780686 0.624923
vn 0.422941 0.803184 0.419543
vn 0.625205 0.780449 -0.004258
vn 0.431417 0.799426 -0.418088
vn 0.000442 0.780137 -0.625608
vn -0.422796 0.801265 -0.423342
vn -0.613767 0.789487 0.000938
vn -0.001520 -0.554805 0.831979
vn 0.582387 -0.576889 0.572734
vn 0.835006 -0.550228 -0.003843
vn 0.580016 -0.574101 -0.577919
vn 0.001491 -0.552659 -0.833406
vn -0.584502 -0.575130 -0.572349
vn -0.833384 -0.552653 -0.006769
vn -0.580266 -0.578025 0.573741
usemtl Top_diamond.png
s off
f 11/1/1 17/2/1 12/3/1
f 12/3/2 17/2/2 13/4/2
f 13/4/3 17/2/3 14/5/3
f 14/5/4 17/2/4 15/6/4
f 15/6/5 17/2/5 16/7/5
f 9/8/6 16/7/6 17/2/6
f 9/8/7 17/2/7 10/9/7
f 10/9/8 17/2/8 11/1/8
usemtl Middle_diamond.png
f 7/10/9 8/11/9 9/12/9 10/13/9
f 1/14/10 16/15/10 9/12/10 8/11/10
f 1/14/11 2/16/11 15/17/11 16/15/11
f 2/16/12 3/18/12 14/19/12 15/17/12
f 3/18/13 4/20/13 13/21/13 14/19/13
f 4/20/14 5/22/14 12/23/14 13/21/14
f 5/22/15 6/24/15 11/25/15 12/23/15
f 6/24/16 7/10/16 10/13/16 11/25/16
usemtl Bottom_diamond.png
f 1/26/17 8/27/17 18/28/17
f 1/26/18 18/28/18 2/29/18
f 2/29/19 18/28/19 3/30/19
f 3/30/20 18/28/20 4/31/20
f 4/31/21 18/28/21 5/32/21
f 5/32/22 18/28/22 6/33/22
f 6/33/23 18/28/23 7/34/23
f 7/34/24 18/28/24 8/35/24
